{"asset":{"version":"2.0","generator":"Blockbench 5.0.2 glTF exporter"},"scenes":[{"nodes":[1,3,6,8,10,12,14,16],"name":"blockbench_export"}],"scene":0,"nodes":[{"translation":[-0.153569375,-0.0546875,0.03377749999999999],"name":"cuboid","mesh":0},{"translation":[0.091069375,0.0546875,-0.2369025],"name":"group10","children":[0]},{"name":"cuboid_selection","mesh":1},{"translation":[0.091069375,0.0546875,-0.2369025],"name":"group9","children":[2]},{"name":"cube","mesh":2},{"name":"cube","mesh":3},{"translation":[0,0,-0.125],"name":"group2","children":[4,5]},{"name":"cube","mesh":4},{"translation":[-0.125,0,-0.3125],"name":"group","children":[7]},{"translation":[-0.071875,-0.0625,-0.115625],"name":"cube","mesh":5},{"translation":[0.071875,0.0625,-0.009375],"name":"group3","children":[9]},{"translation":[-0.1875,0,-0.125],"name":"cube","mesh":6},{"name":"group5","children":[11]},{"translation":[0,0,0.0625],"name":"cube","mesh":7},{"name":"group6","children":[13]},{"translation":[-0.1875,0,0.0625],"name":"cube","mesh":8},{"name":"group7","children":[15]}],"bufferViews":[{"buffer":0,"byteOffset":0,"byteLength":240,"target":34962,"byteStride":12},{"buffer":0,"byteOffset":240,"byteLength":240,"target":34962,"byteStride":12},{"buffer":0,"byteOffset":480,"byteLength":160,"target":34962,"byteStride":8},{"buffer":0,"byteOffset":640,"byteLength":48,"target":34963},{"buffer":0,"byteOffset":688,"byteLength":240,"target":34962,"byteStride":12},{"buffer":0,"byteOffset":928,"byteLength":240,"target":34962,"byteStride":12},{"buffer":0,"byteOffset":1168,"byteLength":160,"target":34962,"byteStride":8},{"buffer":0,"byteOffset":1328,"byteLength":48,"target":34963},{"buffer":0,"byteOffset":1376,"byteLength":288,"target":34962,"byteStride":12},{"buffer":0,"byteOffset":1664,"byteLength":288,"target":34962,"byteStride":12},{"buffer":0,"byteOffset":1952,"byteLength":192,"target":34962,"byteStride":8},{"buffer":0,"byteOffset":2144,"byteLength":72,"target":34963},{"buffer":0,"byteOffset":2216,"byteLength":288,"target":34962,"byteStride":12},{"buffer":0,"byteOffset":2504,"byteLength":288,"target":34962,"byteStride":12},{"buffer":0,"byteOffset":2792,"byteLength":192,"target":34962,"byteStride":8},{"buffer":0,"byteOffset":2984,"byteLength":72,"target":34963},{"buffer":0,"byteOffset":3056,"byteLength":288,"target":34962,"byteStride":12},{"buffer":0,"byteOffset":3344,"byteLength":288,"target":34962,"byteStride":12},{"buffer":0,"byteOffset":3632,"byteLength":192,"target":34962,"byteStride":8},{"buffer":0,"byteOffset":3824,"byteLength":72,"target":34963},{"buffer":0,"byteOffset":3896,"byteLength":288,"target":34962,"byteStride":12},{"buffer":0,"byteOffset":4184,"byteLength":288,"target":34962,"byteStride":12},{"buffer":0,"byteOffset":4472,"byteLength":192,"target":34962,"byteStride":8},{"buffer":0,"byteOffset":4664,"byteLength":72,"target":34963},{"buffer":0,"byteOffset":4736,"byteLength":288,"target":34962,"byteStride":12},{"buffer":0,"byteOffset":5024,"byteLength":288,"target":34962,"byteStride":12},{"buffer":0,"byteOffset":5312,"byteLength":192,"target":34962,"byteStride":8},{"buffer":0,"byteOffset":5504,"byteLength":72,"target":34963},{"buffer":0,"byteOffset":5576,"byteLength":288,"target":34962,"byteStride":12},{"buffer":0,"byteOffset":5864,"byteLength":288,"target":34962,"byteStride":12},{"buffer":0,"byteOffset":6152,"byteLength":192,"target":34962,"byteStride":8},{"buffer":0,"byteOffset":6344,"byteLength":72,"target":34963},{"buffer":0,"byteOffset":6416,"byteLength":288,"target":34962,"byteStride":12},{"buffer":0,"byteOffset":6704,"byteLength":288,"target":34962,"byteStride":12},{"buffer":0,"byteOffset":6992,"byteLength":192,"target":34962,"byteStride":8},{"buffer":0,"byteOffset":7184,"byteLength":72,"target":34963},{"buffer":0,"byteOffset":7256,"byteLength":68},{"buffer":0,"byteOffset":7324,"byteLength":204},{"buffer":0,"byteOffset":7528,"byteLength":16},{"buffer":0,"byteOffset":7544,"byteLength":48},{"buffer":0,"byteOffset":7592,"byteLength":28},{"buffer":0,"byteOffset":7620,"byteLength":112},{"buffer":0,"byteOffset":7732,"byteLength":16},{"buffer":0,"byteOffset":7748,"byteLength":48},{"buffer":0,"byteOffset":7796,"byteLength":4},{"buffer":0,"byteOffset":7800,"byteLength":16},{"buffer":0,"byteOffset":7816,"byteLength":16},{"buffer":0,"byteOffset":7832,"byteLength":48},{"buffer":0,"byteOffset":7880,"byteLength":16},{"buffer":0,"byteOffset":7896,"byteLength":48},{"buffer":0,"byteOffset":7944,"byteLength":16},{"buffer":0,"byteOffset":7960,"byteLength":48},{"buffer":0,"byteOffset":8008,"byteLength":4},{"buffer":0,"byteOffset":8012,"byteLength":12},{"buffer":0,"byteOffset":8024,"byteLength":16},{"buffer":0,"byteOffset":8040,"byteLength":48}],"buffers":[{"byteLength":8088,"uri":"data:application/octet-stream;base64,"}],"accessors":[{"bufferView":0,"componentType":5126,"count":20,"max":[0.08080562204122543,0.125,0.026118125766515732],"min":[-0.16919437050819397,0,-0.11450687795877457],"type":"VEC3"},{"bufferView":1,"componentType":5126,"count":20,"max":[0,1,1],"min":[-0.4902612268924713,-1,-0.8715755343437195],"type":"VEC3"},{"bufferView":2,"componentType":5126,"count":20,"max":[0.984375,0.171875],"min":[0.640625,0.140625],"type":"VEC2"},{"bufferView":3,"componentType":5123,"count":24,"max":[19],"min":[0],"type":"SCALAR"},{"bufferView":4,"componentType":5126,"count":20,"max":[0.171875,0.0703125,0.04427062347531319],"min":[-0.078125,-0.0546875,-0.09635437279939651],"type":"VEC3"},{"bufferView":5,"componentType":5126,"count":20,"max":[0.4902612268924713,1,1],"min":[0,-1,-0.8715755343437195],"type":"VEC3"},{"bufferView":6,"componentType":5126,"count":20,"max":[0.359375,0.234375],"min":[0.015625,0.203125],"type":"VEC2"},{"bufferView":7,"componentType":5123,"count":24,"max":[19],"min":[0],"type":"SCALAR"},{"bufferView":8,"componentType":5126,"count":24,"max":[0.23125000298023224,0.125,0.05000000074505806],"min":[0.04374999925494194,0,-0.04374999925494194],"type":"VEC3"},{"bufferView":9,"componentType":5126,"count":24,"max":[1,1,1],"min":[-1,-1,-1],"type":"VEC3"},{"bufferView":10,"componentType":5126,"count":24,"max":[0.484375,0.109375],"min":[0.140625,0.078125],"type":"VEC2"},{"bufferView":11,"componentType":5123,"count":36,"max":[23],"min":[0],"type":"SCALAR"},{"bufferView":12,"componentType":5126,"count":24,"max":[0.23125000298023224,0.125,0.14374999701976776],"min":[0.13750000298023224,0,0.05000000074505806],"type":"VEC3"},{"bufferView":13,"componentType":5126,"count":24,"max":[1,1,1],"min":[-1,-1,-1],"type":"VEC3"},{"bufferView":14,"componentType":5126,"count":24,"max":[0.984375,0.171875],"min":[0.015625,0.078125],"type":"VEC2"},{"bufferView":15,"componentType":5123,"count":36,"max":[23],"min":[0],"type":"SCALAR"},{"bufferView":16,"componentType":5126,"count":24,"max":[0.078125,0.125,0.09375],"min":[-0.015625,0,0],"type":"VEC3"},{"bufferView":17,"componentType":5126,"count":24,"max":[1,1,1],"min":[-1,-1,-1],"type":"VEC3"},{"bufferView":18,"componentType":5126,"count":24,"max":[0.609375,0.171875],"min":[0.265625,0.140625],"type":"VEC2"},{"bufferView":19,"componentType":5123,"count":36,"max":[23],"min":[0],"type":"SCALAR"},{"bufferView":20,"componentType":5126,"count":24,"max":[0.11874999850988388,0.125,0.16249999403953552],"min":[0.02500000037252903,0,0.06875000149011612],"type":"VEC3"},{"bufferView":21,"componentType":5126,"count":24,"max":[1,1,1],"min":[-1,-1,-1],"type":"VEC3"},{"bufferView":22,"componentType":5126,"count":24,"max":[0.859375,0.109375],"min":[0.515625,0.078125],"type":"VEC2"},{"bufferView":23,"componentType":5123,"count":36,"max":[23],"min":[0],"type":"SCALAR"},{"bufferView":24,"componentType":5126,"count":24,"max":[0.1875,0.125,0.15625],"min":[0,0,-0.03125],"type":"VEC3"},{"bufferView":25,"componentType":5126,"count":24,"max":[1,1,1],"min":[-1,-1,-1],"type":"VEC3"},{"bufferView":26,"componentType":5126,"count":24,"max":[0.984375,0.109375],"min":[0.015625,0.015625],"type":"VEC2"},{"bufferView":27,"componentType":5123,"count":36,"max":[23],"min":[0],"type":"SCALAR"},{"bufferView":28,"componentType":5126,"count":24,"max":[0.21875,0.125,0.1875],"min":[0.03125,0,0],"type":"VEC3"},{"bufferView":29,"componentType":5126,"count":24,"max":[1,1,1],"min":[-1,-1,-1],"type":"VEC3"},{"bufferView":30,"componentType":5126,"count":24,"max":[0.734375,0.046875],"min":[0.390625,0.015625],"type":"VEC2"},{"bufferView":31,"componentType":5123,"count":36,"max":[23],"min":[0],"type":"SCALAR"},{"bufferView":32,"componentType":5126,"count":24,"max":[0.1875,0.125,0.1875],"min":[0,0,0],"type":"VEC3"},{"bufferView":33,"componentType":5126,"count":24,"max":[1,1,1],"min":[-1,-1,-1],"type":"VEC3"},{"bufferView":34,"componentType":5126,"count":24,"max":[0.359375,0.046875],"min":[0.015625,0.015625],"type":"VEC2"},{"bufferView":35,"componentType":5123,"count":36,"max":[23],"min":[0],"type":"SCALAR"},{"bufferView":36,"componentType":5126,"count":17,"max":[3],"min":[0],"type":"SCALAR"},{"bufferView":37,"componentType":5126,"count":17,"max":[-0.125,0,-0.28125],"min":[-0.125,0,-0.3125],"type":"VEC3"},{"bufferView":38,"componentType":5126,"count":4,"max":[3],"min":[0],"type":"SCALAR"},{"bufferView":39,"componentType":5126,"count":4,"max":[0,0,-0.10625000298023224],"min":[-0.02500000037252903,0,-0.125],"type":"VEC3"},{"bufferView":40,"componentType":5126,"count":7,"max":[2.25],"min":[0.75],"type":"SCALAR"},{"bufferView":41,"componentType":5126,"count":7,"max":[0,0.8660253882408142,0,1],"min":[0,-1,0,-0.8660253882408142],"type":"VEC4"},{"bufferView":42,"componentType":5126,"count":4,"max":[3],"min":[0],"type":"SCALAR"},{"bufferView":43,"componentType":5126,"count":4,"max":[0.02500000037252903,0,0.0062500000931322575],"min":[0,0,0],"type":"VEC3"},{"bufferView":44,"componentType":5126,"count":1,"max":[1],"min":[1],"type":"SCALAR"},{"bufferView":45,"componentType":5126,"count":1,"max":[0,0,0,1],"min":[0,0,0,1],"type":"VEC4"},{"bufferView":46,"componentType":5126,"count":4,"max":[3],"min":[0],"type":"SCALAR"},{"bufferView":47,"componentType":5126,"count":4,"max":[0,0,0],"min":[-0.012500000186264515,0,-0.02500000037252903],"type":"VEC3"},{"bufferView":48,"componentType":5126,"count":4,"max":[3],"min":[0],"type":"SCALAR"},{"bufferView":49,"componentType":5126,"count":4,"max":[0.02500000037252903,0,0],"min":[0,0,-0.02500000037252903],"type":"VEC3"},{"bufferView":50,"componentType":5126,"count":4,"max":[3],"min":[0],"type":"SCALAR"},{"bufferView":51,"componentType":5126,"count":4,"max":[0.09106937795877457,0.0546875,-0.19002750515937805],"min":[0.09106937795877457,0.0546875,-0.23690250515937805],"type":"VEC3"},{"bufferView":52,"componentType":5126,"count":1,"max":[0],"min":[0],"type":"SCALAR"},{"bufferView":53,"componentType":5126,"count":1,"max":[1,1,1],"min":[1,1,1],"type":"VEC3"},{"bufferView":54,"componentType":5126,"count":4,"max":[3],"min":[0],"type":"SCALAR"},{"bufferView":55,"componentType":5126,"count":4,"max":[0.09106937795877457,0.0546875,-0.20565250515937805],"min":[0.09106937795877457,0.0546875,-0.23690250515937805],"type":"VEC3"}],"materials":[{"pbrMetallicRoughness":{"metallicFactor":0,"roughnessFactor":1,"baseColorTexture":{"index":0}},"alphaMode":"MASK","alphaCutoff":0.05,"doubleSided":true}],"textures":[{"sampler":0,"source":0,"name":"texturesburb.png"}],"samplers":[{"magFilter":9728,"minFilter":9728,"wrapS":33071,"wrapT":33071}],"images":[{"mimeType":"image/png","uri":"data:image/png;base64,"}],"meshes":[{"primitives":[{"mode":4,"attributes":{"POSITION":0,"NORMAL":1,"TEXCOORD_0":2},"indices":3,"material":0}]},{"primitives":[{"mode":4,"attributes":{"POSITION":4,"NORMAL":5,"TEXCOORD_0":6},"indices":7,"material":0}]},{"primitives":[{"mode":4,"attributes":{"POSITION":8,"NORMAL":9,"TEXCOORD_0":10},"indices":11,"material":0}]},{"primitives":[{"mode":4,"attributes":{"POSITION":12,"NORMAL":13,"TEXCOORD_0":14},"indices":15,"material":0}]},{"primitives":[{"mode":4,"attributes":{"POSITION":16,"NORMAL":17,"TEXCOORD_0":18},"indices":19,"material":0}]},{"primitives":[{"mode":4,"attributes":{"POSITION":20,"NORMAL":21,"TEXCOORD_0":22},"indices":23,"material":0}]},{"primitives":[{"mode":4,"attributes":{"POSITION":24,"NORMAL":25,"TEXCOORD_0":26},"indices":27,"material":0}]},{"primitives":[{"mode":4,"attributes":{"POSITION":28,"NORMAL":29,"TEXCOORD_0":30},"indices":31,"material":0}]},{"primitives":[{"mode":4,"attributes":{"POSITION":32,"NORMAL":33,"TEXCOORD_0":34},"indices":35,"material":0}]}],"animations":[{"name":"animation","samplers":[{"input":36,"output":37,"interpolation":"LINEAR"},{"input":38,"output":39,"interpolation":"LINEAR"},{"input":40,"output":41,"interpolation":"LINEAR"},{"input":42,"output":43,"interpolation":"LINEAR"},{"input":44,"output":45,"interpolation":"LINEAR"},{"input":46,"output":47,"interpolation":"LINEAR"},{"input":48,"output":49,"interpolation":"LINEAR"},{"input":50,"output":51,"interpolation":"LINEAR"},{"input":52,"output":53,"interpolation":"LINEAR"},{"input":54,"output":55,"interpolation":"LINEAR"}],"channels":[{"sampler":0,"target":{"node":8,"path":"translation"}},{"sampler":1,"target":{"node":6,"path":"translation"}},{"sampler":2,"target":{"node":10,"path":"rotation"}},{"sampler":3,"target":{"node":12,"path":"translation"}},{"sampler":4,"target":{"node":14,"path":"rotation"}},{"sampler":5,"target":{"node":14,"path":"translation"}},{"sampler":6,"target":{"node":16,"path":"translation"}},{"sampler":7,"target":{"node":3,"path":"translation"}},{"sampler":8,"target":{"node":3,"path":"scale"}},{"sampler":9,"target":{"node":1,"path":"translation"}}]}]}